<svg width="64" height="64" viewBox="0 0 64 64" fill="none" xmlns="http://www.w3.org/2000/svg">
  <rect width="64" height="64" rx="14" fill="#D8FF3E"/>
  <rect x="10" y="10" width="44" height="44" rx="10" fill="#15151A"/>
  <path d="M11 42H53V47H11V42Z" fill="#74766F"/>
  <path d="M11 44H53V46H11V44Z" fill="#B8BAB2"/>
  <path d="M16 17H29L31 34L27 38H18L14 34L16 17Z" fill="#292A30"/>
  <path d="M35 17H48L50 34L46 38H37L33 34L35 17Z" fill="#292A30"/>
  <path d="M15 35H30V39H15V35Z" fill="#7B61FF"/>
  <path d="M34 35H49V39H34V35Z" fill="#35D8E8"/>
  <circle cx="47" cy="49" r="1.5" fill="#D8FF3E"/>
</svg>
