<svg width="64" height="64" viewBox="0 0 64 64" fill="none" xmlns="http://www.w3.org/2000/svg">
  <rect width="64" height="64" rx="14" fill="#D8FF3E"/>
  <path d="M10 22C10 17.582 13.582 14 18 14H46C50.418 14 54 17.582 54 22V44C54 48.418 50.418 52 46 52H18C13.582 52 10 48.418 10 44V22Z" fill="#15151A"/>
  <rect x="16" y="20" width="14" height="22" rx="4" fill="#7B61FF"/>
  <rect x="34" y="20" width="14" height="22" rx="4" fill="#35D8E8"/>
  <path d="M16 38H30V42H16V38Z" fill="#A996FF"/>
  <path d="M34 38H48V42H34V38Z" fill="#73EAF3"/>
  <rect x="26" y="47" width="12" height="2" rx="1" fill="#D8FF3E"/>
</svg>
